<svg width="185" height="56" viewBox="0 0 185 56" fill="none" xmlns="http://www.w3.org/2000/svg">
<path d="M27.7301 27.6893L27.7415 27.9242L27.6447 28.086L27.3314 28.1012L26.9654 27.5693L26.8625 26.5275L27.1867 26.1978L27.5523 26.1801L27.7301 27.6893ZM29.8348 20.3644L30.5668 21.428L30.3749 22.3271L29.5833 22.7318L28.8943 22.5559L28.0589 22.5964L27.4142 23.3342L27.456 24.1958L27.1427 24.211L26.981 24.1142L27.2054 23.3444L26.8705 22.9157L26.5732 22.7208L26.3905 22.7297L26.1968 23.0531L26.0908 24.105L25.9166 25.3696L25.7865 25.9255L26.0255 27.6149L25.8673 28.6694L25.9281 29.9226L25.8152 30.2944L25.985 31.0975L25.8963 31.9654L26.3319 33.9331L26.5223 34.0809L27.4024 33.8812L27.8353 34.1743L29.086 34.0613L29.6885 33.5348L30.0043 33.5718L31.1132 34.8527L31.1234 35.0616L30.48 35.8255L30.4354 35.9847L30.2863 36.149L29.2344 36.043L29.0853 36.2072L28.0717 35.8115L26.4307 35.9696L25.8824 35.9962L24.8292 35.8641L24.2173 35.6582L20.5685 35.966L20.2177 35.7475L20.1057 35.5959L20.1338 35.0973L20.7962 34.725L21.4291 34.8252L22.2506 34.4974L23.6159 34.5883L23.9292 34.5731L24.0942 34.1987L24.1186 33.6218L24.569 32.6578L24.4839 31.9815L24.1141 31.3714L24.2563 30.5271L24.3965 30.1801L24.0587 29.1496L23.8058 27.173L23.8887 26.7241L24.2677 26.444L24.4664 26.225L23.9971 24.1019L24.1271 23.546L23.8866 22.9034L23.3951 22.4824L22.4813 22.5267L21.2403 22.299L20.9169 22.1053L20.0031 22.1497L19.5276 21.5185L19.613 21.1218L20.0678 20.7857L20.9727 20.5586L22.0259 20.6907L24.4763 20.4934L26.3822 20.401L29.5101 20.1446L29.8348 20.3644ZM31.8995 35.4165L31.9096 35.6254L31.8376 35.7597L31.681 35.7673L31.4633 35.5947L31.4493 35.3075L31.8148 35.2897L31.8995 35.4165ZM46.0737 24.7061L46.3401 26.4203L45.8689 30.735L45.5401 31.5099L45.3216 31.8607L45.1979 32.5471L44.5335 33.4168L44.376 33.9478L43.0391 34.9809L41.5935 35.3912L41.1388 35.7273L40.6688 35.7501L39.6334 35.9835L39.2438 35.5052L38.4605 35.5432L37.8646 35.1272L37.1808 35.0557L36.8766 34.1807L36.3101 33.2922L35.8263 33.0278L34.8971 31.1363L34.3102 28.2076L34.153 27.6656L34.2304 26.5628L34.1886 25.7012L35.5274 22.5482L36.9282 20.6746L37.8364 19.9763L39.992 19.6362L40.0653 19.528L40.9344 19.6428L42.3684 20.0705L43.4228 20.2287L44.4162 20.2067L44.5282 20.3583L44.5358 20.515L44.0722 20.6683L43.9156 20.6759L43.7901 20.7867L43.9409 21.1981L44.4808 21.5383L45.2356 23.0718L45.69 23.8087L46.0737 24.7061ZM44.3261 28.062L44.3634 26.6732L43.9914 24.9379L43.6254 24.4061L43.427 23.5521L42.66 22.307L41.5904 21.8355L39.412 21.7056L38.9483 21.8589L38.4961 22.2472L37.83 22.5412L37.7892 22.7787L37.1349 23.8573L37.1691 24.5622L36.6983 25.1084L36.314 26.357L36.3615 29.4951L36.5599 30.3491L36.931 30.9853L37.025 31.8444L37.8437 32.5374L38.3491 33.2456L38.9463 33.6877L39.9932 33.6893L40.8606 33.2285L41.9125 33.3345L43.4068 31.7704L43.942 30.9332L43.9296 29.5991L44.3106 28.8217L44.3261 28.062ZM39.3476 26.3146L39.3565 26.4973L39.0693 26.5113L39.1051 26.1693L39.1573 26.1668L39.3476 26.3146ZM39.4755 28.9515L39.6137 29.1018L39.3282 29.6914L39.1779 29.8296L38.9728 29.918L38.5214 29.7829L38.4043 29.5269L38.5878 28.9946L38.7554 28.6724L39.2329 28.8063L39.4755 28.9515ZM73.8393 23.3595L74.1057 25.0737L73.6345 29.3884L73.3057 30.1633L73.0872 30.5141L72.9635 31.2005L72.2991 32.0702L72.1416 32.6012L70.8047 33.6343L69.3591 34.0446L68.9044 34.3807L68.4344 34.4035L67.3989 34.6369L67.0094 34.1586L66.2261 34.1966L65.6302 33.7806L64.9463 33.7091L64.6422 32.8341L64.0757 31.9456L63.5918 31.6812L62.6627 29.7897L62.0757 26.861L61.9186 26.319L61.996 25.2162L61.9542 24.3546L63.293 21.2016L64.6938 19.328L65.602 18.6297L67.7576 18.2896L67.8309 18.1814L68.7 18.2963L70.1339 18.7239L71.1884 18.8822L72.1818 18.8602L72.2938 19.0117L72.3014 19.1684L71.8378 19.3217L71.6811 19.3293L71.5557 19.4401L71.7065 19.8515L72.2464 20.1917L73.0011 21.7253L73.4556 22.4621L73.8393 23.3595ZM72.0917 26.7154L72.129 25.3266L71.757 23.5913L71.391 23.0595L71.1926 22.2055L70.4256 20.9604L69.3559 20.4889L67.1775 20.359L66.7139 20.5123L66.2617 20.9006L65.5955 21.1946L65.5547 21.4322L64.9005 22.5107L64.9346 23.2156L64.4639 23.7618L64.0796 25.0104L64.1271 28.1485L64.3255 29.0025L64.6966 29.6387L64.7906 30.4978L65.6093 31.1908L66.1147 31.8991L66.7119 32.3411L67.7587 32.3427L68.6262 31.8819L69.6781 31.9879L71.1724 30.4238L71.7075 29.5866L71.6952 28.2525L72.0762 27.4751L72.0917 26.7154ZM67.1132 24.968L67.1221 25.1507L66.8349 25.1647L66.8706 24.8227L66.9229 24.8202L67.1132 24.968ZM67.2411 27.6049L67.3792 27.7552L67.0938 28.3448L66.9435 28.483L66.7384 28.5714L66.287 28.4363L66.1699 28.1803L66.3534 27.648L66.521 27.3258L66.9985 27.4597L67.2411 27.6049ZM88.5507 22.646L88.8171 24.3603L88.3459 28.675L88.0171 29.4498L87.7986 29.8006L87.6749 30.487L87.0105 31.3567L86.853 31.8877L85.5161 32.9208L84.0705 33.3312L83.6158 33.6672L83.1458 33.69L82.1104 33.9234L81.7208 33.4451L80.9375 33.4831L80.3416 33.0671L79.6578 32.9956L79.3536 32.1206L78.7871 31.2321L78.3033 30.9677L77.3741 29.0762L76.7872 26.1475L76.63 25.6056L76.7074 24.5027L76.6656 23.6411L78.0044 20.4882L79.4052 18.6145L80.3134 17.9162L82.469 17.5761L82.5423 17.4679L83.4114 17.5828L84.8454 18.0105L85.8998 18.1687L86.8932 18.1467L87.0052 18.2983L87.0128 18.4549L86.5492 18.6082L86.3926 18.6158L86.2671 18.7266L86.4179 19.138L86.9578 19.4782L87.7126 21.0118L88.167 21.7487L88.5507 22.646ZM86.8031 26.002L86.8404 24.6131L86.4684 22.8778L86.1024 22.346L85.904 21.492L85.137 20.2469L84.0674 19.7754L81.889 19.6455L81.4253 19.7988L80.9731 20.1872L80.307 20.4812L80.2662 20.7187L79.6119 21.7972L79.6461 22.5021L79.1753 23.0483L78.791 24.297L78.8385 27.435L79.0369 28.289L79.408 28.9252L79.502 29.7843L80.3207 30.4773L80.8261 31.1856L81.4233 31.6277L82.4702 31.6292L83.3376 31.1684L84.3895 31.2744L85.8838 29.7103L86.419 28.8731L86.4066 27.539L86.7876 26.7616L86.8031 26.002ZM81.8246 24.2545L81.8335 24.4373L81.5463 24.4512L81.5821 24.1093L81.6343 24.1067L81.8246 24.2545ZM81.9525 26.8914L82.0907 27.0418L81.8052 27.6313L81.6549 27.7695L81.4498 27.8579L80.9984 27.7228L80.8813 27.4668L81.0648 26.9345L81.2324 26.6123L81.7099 26.7462L81.9525 26.8914ZM103.262 21.9325L103.528 23.6468L103.057 27.9615L102.729 28.7363L102.51 29.0871L102.386 29.7736L101.722 30.6432L101.564 31.1742L100.228 32.2074L98.782 32.6177L98.3272 32.9538L97.8573 32.9766L96.8218 33.21L96.4322 32.7316L95.649 32.7696L95.0531 32.3536L94.3692 32.2821L94.065 31.4071L93.4986 30.5186L93.0147 30.2542L92.0855 28.3627L91.4986 25.434L91.3415 24.8921L91.4188 23.7892L91.377 22.9276L92.7158 19.7747L94.1166 17.901L95.0248 17.2027L97.1804 16.8627L97.2537 16.7544L98.1229 16.8693L99.5568 17.297L100.611 17.4552L101.605 17.4332L101.717 17.5848L101.724 17.7414L101.261 17.8948L101.104 17.9024L100.979 18.0131L101.129 18.4245L101.669 18.7647L102.424 20.2983L102.878 21.0352L103.262 21.9325ZM101.515 25.2885L101.552 23.8997L101.18 22.1643L100.814 21.6325L100.615 20.7785L99.8484 19.5334L98.7788 19.0619L96.6004 18.932L96.1368 19.0854L95.6846 19.4737L95.0184 19.7677L94.9776 20.0052L94.3233 21.0837L94.3575 21.7886L93.8868 22.3349L93.5024 23.5835L93.5499 26.7215L93.7484 27.5755L94.1194 28.2118L94.2134 29.0708L95.0321 29.7638L95.5375 30.4721L96.1347 30.9142L97.1816 30.9157L98.049 30.455L99.1009 30.561L100.595 28.9968L101.13 28.1596L101.118 26.8255L101.499 26.0481L101.515 25.2885ZM96.5361 23.541L96.5449 23.7238L96.2577 23.7377L96.2935 23.3958L96.3457 23.3932L96.5361 23.541ZM96.6639 26.178L96.8021 26.3283L96.5166 26.9179L96.3663 27.056L96.1613 27.1445L95.7098 27.0093L95.5927 26.7533L95.7763 26.221L95.9438 25.8989L96.4214 26.0327L96.6639 26.178ZM132.517 16.2218L133.015 16.7734L132.943 18.5303L132.9 18.7156L132.748 18.8276L132.592 18.8352L131.787 17.3564L131.414 17.2175L130.897 17.3472L130.648 17.621L130.947 18.3915L130.667 19.0856L130.336 19.8082L129.519 20.2404L128.833 20.1166L128.479 19.2964L127.84 19.0657L127.817 18.5957L127.911 18.3818L127.841 18.0188L127.244 17.5767L126.113 17.9979L126.199 19.7733L126.018 20.3578L126.096 21.9504L125.982 22.8457L126.165 23.3864L126.226 24.6396L126.456 26.1463L126.239 28.1457L126.254 28.459L126.376 28.8194L127.294 29.403L127.721 29.5655L128.296 30.0872L128.74 30.0656L128.755 30.3789L127.983 30.6519L126.761 31.3654L125.874 31.4084L125.568 31.5803L124.887 31.561L124.459 31.3724L123.79 31.6142L122.368 31.4215L121.856 31.6557L120.529 31.8247L119.611 31.2411L119.027 30.5367L119.003 30.0406L120.222 29.2749L120.841 29.0879L121.722 27.8152L121.428 26.0761L121.761 25.3795L121.553 24.3428L121.608 23.3195L121.577 22.6668L121.404 22.335L121.53 20.6278L121.288 19.9591L121.22 18.5493L120.671 18.0263L119.522 18.082L118.81 16.8866L118.77 16.0511L118.942 15.8334L119.905 15.7082L120.239 15.5873L121.283 15.5367L121.383 15.4272L122.173 15.5459L122.949 15.3512L125.048 15.4588L127.241 15.3524L127.523 15.2341L128.472 15.3712L129.281 15.332L130.934 15.9584L131.25 15.9954L131.421 16.275L131.585 16.4241L132.282 16.2332L132.517 16.2218ZM125.182 24.6902L125.459 23.944L125.264 23.1422L125.404 22.7952L125.035 21.6617L124.974 20.4085L124.784 19.7372L124.847 18.8706L124.395 18.1859L124.134 18.1986L123.995 18.5717L124.086 18.829L124.127 19.6645L123.872 20.3572L124.115 21.052L123.928 21.506L124.13 26.7563L123.956 27.4713L124.138 27.9859L124.015 28.6984L124.183 28.9258L124.58 29.0112L125.119 28.8019L125.069 27.7576L125.159 27.4653L125.213 26.4159L125.072 25.6638L125.182 24.6902ZM145.631 17.1037L146.132 18.8066L146.002 20.4354L145.519 21.2701L145.397 21.9826L145.43 22.6614L145.539 22.7608L145.452 23.1314L144.483 23.6495L143.274 23.551L142.694 23.9979L142.079 23.7137L141.46 23.9008L141.054 24.1821L139.893 23.9767L139.564 24.2021L139.392 24.4459L139.213 25.0565L139.185 26.1047L139.497 26.6129L139.561 27.9183L139.76 28.2489L140.667 28.5974L141.275 28.725L141.604 28.4996L142.364 28.5151L142.779 28.9922L143.115 29.9704L142.697 29.9906L141.684 30.694L139.747 30.6833L139.337 30.8602L138.546 30.7415L137.319 30.801L137.092 30.9691L136.562 30.8377L135.385 30.8425L135.113 30.6463L134.457 30.5996L133.908 30.0767L133.929 29.4214L134.05 29.2323L134.199 29.0681L135.372 28.9589L136.275 28.7057L136.807 28.3397L137 27.9902L136.861 26.2173L136.658 24.186L136.632 23.6377L137.037 22.8329L136.717 20.5455L136.754 16.9847L136.453 16.7114L135.936 16.8411L135.709 17.0353L135.156 16.9575L134.996 16.8867L133.847 16.9424L133.44 16.6481L133.242 16.3437L133.371 15.7617L134.075 15.178L134.743 14.9101L136.211 14.9697L137.36 14.914L139.455 14.9433L139.784 14.7179L140.338 14.7958L142.247 14.7817L143.214 15.2844L144.974 15.4345L145.025 16.4788L145.631 17.1037ZM144.236 19.6313L144.253 18.8977L143.605 17.4113L142.757 17.1907L142.175 16.5385L141.836 16.555L141.344 16.6574L140.635 16.6132L139.591 16.6639L139.011 16.5873L138.655 16.7878L138.563 17.0539L138.75 18.7459L138.594 19.8526L138.716 20.213L139.05 20.6156L139.151 21.6313L139.455 21.9567L139.69 21.9454L139.74 21.8906L140.395 21.9112L141.7 21.8479L142.708 21.5896L143.056 21.2064L143.918 20.6411L144.236 19.6313ZM154.234 17.7856L154.244 17.9944L154.019 18.2147L153.677 18.1789L153.56 17.9229L153.643 17.474L153.792 17.3098L154.165 17.4487L154.234 17.7856ZM161.523 17.5367L161.894 18.173L161.885 18.5137L161.582 18.7377L160.921 18.6127L160.859 18.4064L160.92 17.5136L160.802 17.2315L160.998 16.9603L161.511 17.2757L161.523 17.5367ZM163.693 14.7884L163.707 15.0756L163.184 15.6243L162.818 15.642L162.412 15.3477L161.868 15.4788L161.743 15.5895L160.844 15.9471L160.367 15.8133L159.59 15.9818L159.196 16.4981L159.257 17.7513L158.892 18.8681L159.076 21.5809L159.467 22.0853L159.382 23.0315L159.518 25.8251L159.307 26.3326L160.008 27.293L160.305 27.488L160.984 27.4551L161.361 26.5993L161.779 26.5791L161.949 26.8587L161.864 27.2554L161.514 27.5864L162.165 28.6016L161.828 28.6703L160.881 29.6583L159.996 29.7536L158.114 29.7925L157.717 29.7071L157.226 29.8356L156.469 29.8723L155.753 29.6715L155.454 29.4504L155.446 29.2938L155.254 29.0938L154.636 29.3069L154.264 29.1941L153.854 29.371L153.398 29.681L152.722 29.7662L152.365 29.9666L150.74 29.9146L148.442 30.026L147.936 29.2917L148.017 28.8167L148.58 28.5538L149.15 28.4215L149.93 27.7818L149.895 26.5273L150.024 25.9454L150.095 24.1624L149.792 23.3135L150.045 22.0712L149.831 20.8778L149.962 20.348L149.682 18.8961L149.83 18.7058L149.704 18.267L149.482 18.016L149.591 17.0163L149.581 16.8074L148.493 15.9704L147.81 15.8989L147.426 15.5511L147.407 15.1595L148.942 14.4308L149.681 14.552L150.68 14.6605L150.976 14.2798L152.738 14.4561L153.432 15.286L154.225 15.4308L154.61 15.8308L153.77 16.3164L153.062 16.2723L152.741 16.1308L152.117 16.2134L151.573 16.8679L151.583 17.0767L152.077 17.55L151.984 17.79L151.581 18.1236L151.56 20.3752L151.76 20.7319L152.569 20.6926L152.976 20.9869L153.695 20.6904L154.224 20.8217L154.53 20.6499L155.326 20.873L156.828 20.5385L157.147 20.1043L157.115 19.4516L157.335 19.1269L157.132 17.645L156.615 17.2252L156.917 16.4516L156.851 16.167L155.511 16.0488L154.849 15.8977L155.12 15.5444L155.083 14.7872L155.759 14.1525L156.419 14.2775L156.808 14.2063L156.957 14.0421L157.508 14.0677L157.672 14.2168L158.709 14.0095L159.03 14.1509L159.709 14.118L160.351 14.4009L161.144 14.5718L161.392 14.8215L162.305 14.7772L162.762 14.4672L163.473 14.5635L163.693 14.7884ZM162.193 22.1625L162.208 22.4758L161.929 22.6725L161.407 22.1483L161.155 21.2707L161.505 20.9397L161.688 20.9308L162.016 21.2289L162.193 22.1625ZM157.355 25.4851L157.597 24.5313L157.173 22.7985L156.874 22.5774L155.669 22.5574L155.11 22.349L153.358 22.3816L153.055 22.6057L152.533 22.631L151.794 22.5098L151.671 22.6728L151.476 23.5196L151.737 24.0304L151.573 25.5039L151.82 25.7536L152.051 26.7368L151.962 27.0552L151.987 27.5773L152.43 28.0792L153.745 28.1987L154.571 27.9754L154.837 28.0672L155.232 28.6499L155.467 28.6386L156.094 28.0847L157.336 27.789L157.489 27.1535L157.355 25.4851Z" fill="#211F20"/>
<path d="M36.068 11.0953C36.3423 11.0767 37.4476 11.036 37.9256 11.0106C37.3863 11.0929 35.0783 11.1626 36.068 11.0953ZM84.921 4.64729C84.5249 4.68038 84.1288 4.71348 83.7327 4.74658C84.8607 4.70089 86.3757 4.61722 87.4227 4.57963C87.5939 4.57354 87.1519 4.63518 87.5569 4.61734C87.962 4.59947 87.8813 4.54844 88.47 4.51401C89.1305 4.47556 92.1578 4.36701 93.2055 4.31527C97.1241 4.12152 101.075 3.89852 105.003 3.73085C100.951 3.96801 105.038 3.81117 106.172 3.73853C106.424 3.72226 106.379 3.6223 110.447 3.45071C113.033 3.34164 110.652 3.60311 114.962 3.32094C111.64 3.37987 114.902 3.22884 117.502 3.09936C117.95 3.07702 121.571 2.91678 123.169 2.83472C123.716 2.80661 124.547 2.71281 125.273 2.67622C125.772 2.65107 126.152 2.66194 126.893 2.62449C130.35 2.45025 133.749 2.2831 137.213 2.12502C135.196 2.36033 138.804 2.10644 138.967 2.10513C139.793 2.10236 136.062 2.29393 137.539 2.24565C139.601 2.14139 141.663 2.03712 143.725 1.93286C142.032 1.9981 145.961 1.70867 146.687 1.71844C146.362 1.61269 156.091 1.3681 157.568 1.25587C157.876 1.23238 155.856 1.27029 160.536 1.07079C161.043 1.04926 160.853 1.09513 161.119 1.07883C161.278 1.06907 162.235 0.906117 163.265 0.920575C163.641 0.925838 161.247 1.11846 166.51 0.832423C164.408 0.815814 173.808 0.414283 175.538 0.360082C175.192 0.360941 174.846 0.361797 174.5 0.362657C176.211 0.322641 176.517 0.26746 176.902 0.25098C178.006 0.203754 179.403 0.15831 180.638 0.109477L182.529 -6.50088e-05L182.641 1.92659C182.661 2.42934 182.681 2.90517 182.702 3.32326C182.789 5.01449 182.862 5.01663 182.929 6.98991C182.923 6.52125 182.917 6.05259 182.91 5.58393C182.972 6.94598 183.034 8.30802 183.096 9.67006C182.846 6.5211 183.125 10.3506 183.139 10.6031C183.162 11.0058 183.094 10.4289 183.132 11.1024C183.136 11.172 183.169 11.0695 183.223 12.1078C183.337 14.2772 183.273 13.9365 183.318 14.8474C183.322 14.9309 183.342 14.637 183.426 16.2101C183.694 21.2097 183.399 16.1865 183.385 15.9948C183.367 15.7431 183.309 17.4647 183.153 13.2143C183.206 14.6414 183.15 14.7879 183.157 14.9486C183.162 15.0909 183.291 17.5617 183.3 17.6978C183.38 18.9116 183.371 17.8406 183.39 18.077C183.406 18.2703 183.494 21.2504 183.657 21.942C183.607 23.3723 183.509 21.1275 183.375 18.7396C183.334 18.3922 183.437 21.0167 183.444 21.1546C183.608 24.5384 183.615 22.6602 183.713 23.397C183.765 23.784 183.765 25.1659 183.791 23.8888C183.949 26.9597 183.808 25.0995 183.81 25.2982C183.814 25.5982 183.891 26.6716 183.894 26.8063C183.899 27.0039 183.835 26.3191 183.862 27.0981C183.867 27.2275 183.98 28.4793 183.926 26.8607C184.024 29.022 184.06 28.8418 184.006 29.5791C184.247 31.0592 183.958 30.6639 183.977 31.2505C184.027 32.8102 184.138 32.3515 184.149 32.4335C184.218 32.9986 184.381 37.315 184.452 38.3825C184.336 37.9656 184.286 34.9624 184.234 34.2928C184.064 32.0604 184.339 37.4458 184.14 35.8282C184.206 36.5072 184.272 37.1862 184.338 37.8653C184.322 39.117 184.202 37.3482 184.393 40.7053C184.487 41.2513 184.267 38.3313 184.348 38.9153C184.396 39.2596 184.497 41.2067 184.515 41.2442C184.537 41.2816 184.428 39.5227 184.472 39.7986C184.566 40.4011 184.816 46.8239 184.543 41.9386C184.602 43.1241 184.537 43.8146 184.584 44.7507L184.685 46.5091L182.894 46.6129C182.753 46.6199 182.608 46.6293 182.454 46.642C182.169 46.6657 182.592 46.6763 182.898 46.695L184.772 46.5864L184.666 44.7467C184.682 44.4855 184.704 44.3112 184.745 44.7429L184.856 46.6607L182.901 46.7739C182.489 46.8131 181.522 46.8698 179.547 46.9555C179.406 46.9011 182.125 46.8124 182.195 46.8043C182.294 46.7927 181.796 46.6787 181.711 46.676C181.409 46.6682 174.824 47.0616 173.429 47.0598C173.983 47.1128 168.451 47.3155 167.85 47.369C167.69 47.3834 168.291 47.4032 168.12 47.4167C167.053 47.4993 164.156 47.5524 162.814 47.6152C161.313 47.6855 161.505 47.7184 161.421 47.7224C160.76 47.7521 161.287 47.6979 160.883 47.7176C160.273 47.7473 156.08 47.9448 155.87 47.961C155.808 47.9658 156.495 47.9808 155.581 48.0342C155.423 48.0435 155.521 47.9815 152.815 48.1375C149.556 48.3253 155.082 48.0987 153.73 48.2242C151.632 48.2406 151.704 48.3217 151.136 48.3426C150.939 48.3497 149.473 48.349 147.884 48.4306C149.024 48.3636 150.164 48.2966 151.304 48.2297C150.182 48.2715 148.005 48.3927 147.081 48.4233C146.63 48.4382 146.998 48.3613 146.019 48.4103C145.811 48.4211 144.994 48.6046 147.555 48.4158C147.763 48.4571 146.541 48.4829 145.976 48.5249C145.89 48.5313 145.557 48.6333 144.831 48.6152C144.657 48.6105 146.535 48.269 141.669 48.6862C141.513 48.6996 142.06 48.7045 141.907 48.7184C141.802 48.7279 140.557 48.7756 140.42 48.7867C140.28 48.7982 140.882 48.8033 140.715 48.8181C139.859 48.8943 138.726 48.8135 140.496 48.738C139.903 48.75 139.311 48.7619 138.719 48.7738C139.357 48.8452 137.791 48.8476 136.973 48.8905C131.729 49.1649 135.245 49.061 134.344 49.1391C132.897 49.2646 133.996 49.0361 131.845 49.1931C131.647 49.2076 134.253 49.1556 129.169 49.3602C129.919 49.3209 130.669 49.2817 131.419 49.2424C130.981 49.1646 128.71 49.3805 128.535 49.3904C126.541 49.5007 127.888 49.3997 124.927 49.5943C124.663 49.6117 124.085 49.6153 123.52 49.6549C121.176 49.8187 126.617 49.5351 126.767 49.5679C126.839 49.5841 120.987 49.8629 120.786 49.8634C119.931 49.8635 123.437 49.7166 122.767 49.6978C122.522 49.6914 114.184 50.1332 112.509 50.1945C110.578 50.2649 109.702 50.1732 109.697 50.3242C109.145 50.203 108.668 50.3271 108.421 50.338C105.435 50.4692 105.429 50.468 102.869 50.6063C102.304 50.6368 101.825 50.6151 101.625 50.6324C101.509 50.6426 101.729 50.68 101.159 50.7224C100.368 50.7811 95.6059 50.9626 95.2509 50.9533C94.8958 50.9439 97.2604 50.8443 96.8347 50.8213C95.1234 50.8998 93.483 50.9902 91.7604 51.0691C91.0449 51.1018 91.411 51.0535 91.1018 51.0679C90.9703 51.0739 88.5011 51.2205 88.6063 51.2267C88.8528 51.241 96.4806 50.8534 94.4743 51.0042C94.0873 51.0333 92.7146 51.0295 92.9365 51.1044C86.1201 51.4155 79.3037 51.7267 72.4873 52.0379C76.4001 51.784 80.8097 51.6275 84.911 51.4225C85.4731 51.3945 87.3739 51.3106 87.1408 51.2786C83.6524 51.4366 79.3174 51.6694 75.9669 51.8037C75.8596 51.8079 76.2513 51.75 75.8496 51.7634C75.0986 51.7883 72.6581 51.9694 72.2466 51.9731C72.1761 51.9727 73.5641 51.8541 73.1397 51.8421C72.0502 51.8113 71.7837 52.0095 70.8503 52.0526C70.1285 52.0858 65.2744 52.2317 64.0692 52.3467C62.7878 52.4692 67.6451 52.2083 67.2886 52.2749C64.0037 52.4838 60.6726 52.5924 57.5667 52.7492C57.512 52.752 57.989 52.7675 57.2963 52.8065C56.0906 52.8744 55.7714 52.8351 55.184 52.8548C54.5505 52.8762 52.312 52.9926 52.0117 52.9872C51.9734 52.9864 52.4244 52.9102 52.4931 52.9053C53.4672 52.8357 53.8171 52.8893 53.9058 52.8859C54.2394 52.8724 54.5656 52.8295 54.8698 52.8164C55.3707 52.7948 55.6477 52.8063 56.3088 52.7765C56.7649 52.756 56.3225 52.7294 56.7621 52.7103C56.9235 52.7035 58.6691 52.7285 58.826 52.6089C58.8746 52.5713 44.6406 53.2163 43.2194 53.3134C44.4403 53.2677 45.6611 53.2219 46.8819 53.1762C44.4025 53.2637 41.4302 53.4972 41.213 53.3755C32.0238 53.8103 22.8346 54.2451 13.6454 54.68C12.0041 54.7483 12.8997 54.6198 10.2014 54.7754C10.9003 54.7686 11.5992 54.7618 12.2981 54.755C10.9136 54.8032 4.78123 55.0635 3.78986 55.1291C3.78659 55.1293 3.7832 55.1296 3.77982 55.1299L2.18911 55.2221L2.0952 53.6011C2.08308 53.4729 1.99997 53.2686 1.92116 51.7766C1.84941 50.4176 1.89635 50.1964 1.87213 49.4692C1.85163 48.8586 1.80332 48.1741 1.79772 47.9929C1.79352 47.8538 1.82603 47.7971 1.81595 47.4625C1.78373 46.4061 1.72617 47.2663 1.78909 46.213C1.8058 46.4679 1.8225 46.7228 1.83921 46.9777C1.79389 45.703 1.76112 43.9602 1.87761 45.8353C1.89765 46.1577 1.85018 45.8823 1.86191 46.1229C2.32518 55.5446 2.02645 48.0176 1.81347 44.7184C1.82277 43.8679 1.56149 39.117 1.56377 38.9585C1.56751 38.7382 1.64726 39.5495 1.63036 38.4818C1.62685 38.2572 1.29044 31.9043 1.46843 34.1891C1.50515 34.6606 1.63837 37.7078 1.67597 38.4423C1.69905 36.7091 1.34947 32.6658 1.3313 32.2102C1.25885 30.3719 1.59512 35.7355 1.40679 31.5955C1.26195 28.4121 1.33551 31.4038 1.24568 30.1811C1.19522 29.494 1.09914 25.8882 1.00207 25.9909C0.931236 24.755 1.02024 25.476 1.01672 25.3232C1.01289 25.1738 0.86451 22.7443 0.847699 21.9541C0.845725 21.8583 0.913259 22.157 0.912791 22.0579C0.910869 21.865 0.786587 19.5211 0.777535 19.4271C0.771514 19.3673 0.752289 19.9285 0.729907 19.6993C0.703967 19.4322 0.605456 17.1756 0.586181 17.0519C0.557634 16.8772 0.705898 19.6616 0.631577 19.2C0.582362 17.9156 0.446354 15.8257 0.363548 14.9803C0.385546 15.1874 0.447625 16.4321 0.464376 16.8643C0.37863 16.6646 0.250044 13.9919 0.354416 14.9027C0.293998 14.3236 0.296113 14.7208 0.249811 14.3953C0.237941 14.3099 0.196329 13.4847 0.175477 13.3263C0.171855 13.3057 0.184522 14.1586 0.160841 13.9889C0.118018 13.6815 0.0029403 11.1792 0.000315993 10.9741C-0.00692433 10.3968 0.117064 12.4356 0.157324 12.6042C0.163411 12.6281 0.141986 10.89 0.146252 10.8635C0.200765 10.7591 0.25157 12.6919 0.294378 12.4686C0.282526 11.9905 0.270673 11.5125 0.258821 11.0345C0.402333 12.8736 0.539712 16.2822 0.643961 17.1577C0.493189 14.428 0.356765 11.5703 0.49587 11.5695C0.554426 11.5686 0.64583 12.7449 0.658486 12.6987C0.703249 12.5224 0.566154 10.8898 0.566046 10.8295C0.566877 10.7797 0.568932 10.7568 0.572003 10.7567C0.572004 10.7566 0.572006 10.7566 0.572007 10.7566C0.603153 10.7552 0.738634 13.0853 0.75851 13.2013C0.793281 13.3962 0.846926 12.3536 0.870001 12.3541C0.876373 12.39 0.981489 14.0489 0.994453 13.4868C1.0075 12.9181 0.937923 11.465 0.939666 11.4139C0.950455 11.1352 1.09584 13.6758 1.11383 13.7509C1.12301 13.7905 1.1013 12.4234 1.11216 12.3831C1.12334 12.3484 1.20165 13.3844 1.26198 13.7912C1.30685 14.0945 1.28688 13.2059 1.29916 13.3617C1.3077 13.4731 1.42366 15.8746 1.43467 15.9925C1.45103 16.1679 1.45971 15.6037 1.47267 15.6852C1.49124 15.8007 1.51587 16.5768 1.52428 16.4752C1.53052 16.3989 1.50868 13.3864 1.54274 13.4042C1.60089 13.4358 1.62534 16.626 1.70456 13.6526C1.70501 13.6318 1.6542 12.9115 1.6546 12.8914C1.67403 12.4444 1.84923 14.7531 1.70111 11.9268C2.02736 17.1818 1.81775 12.5771 1.95059 13.3505C2.00171 13.6492 2.11565 15.6869 2.12159 15.6961C2.15836 15.4957 2.0909 14.8481 2.10293 14.6261C2.10974 14.504 2.24722 16.3255 2.25916 15.9135C2.26527 15.7005 2.16554 13.7647 2.16486 13.6846C2.15789 12.917 2.23597 13.855 2.24925 13.6856C2.2582 13.5731 2.20268 12.4048 2.20379 12.3743C2.20679 12.3248 2.34181 13.9083 2.37825 14.2377C2.40615 14.4881 2.38503 13.5441 2.40038 13.719C2.49255 14.7731 2.49707 17.025 2.53843 14.8528C2.54099 14.7202 2.49765 13.9014 2.49827 13.8772C2.51521 13.3691 2.59193 14.8768 2.63898 15.1449C2.71997 15.6052 2.58222 13.4395 2.7108 15.2399C2.6835 13.8859 2.64536 13.1326 2.55796 11.5509C2.80019 15.9303 3.02669 17.4691 2.78699 12.6056C2.85966 14.1529 2.93685 13.9771 2.96074 14.4386C2.97549 14.7256 2.99927 16.973 3.14015 15.9352C3.15772 15.805 3.06135 14.4438 3.13083 14.8682C3.277 18.1394 3.16522 14.9361 3.17151 14.9324C3.28593 14.9693 3.58148 22.9654 3.66089 24.3379C3.75303 25.9306 3.91025 27.3424 3.92716 27.6887C3.98246 28.8283 3.89164 27.8848 3.88747 28.1404C3.88362 28.3995 4.1269 31.6357 4.13002 31.7978C4.14146 32.4264 4.05729 31.7919 4.05777 31.8573C4.06282 32.6361 4.3156 36.9861 4.3623 38.2051C4.39503 38.1657 4.27914 35.7193 4.40872 37.2439C4.55969 39.0192 4.41227 39.1284 4.40782 39.1753C4.63952 43.9353 4.87122 48.6953 5.10292 53.4552L3.63395 52.1222C7.02243 51.9572 10.4109 51.7923 13.7994 51.6274C13.694 51.5512 8.36949 51.8707 8.2478 51.8659C7.53308 51.8373 16.5326 51.402 17.6381 51.377C16.7985 51.4002 15.959 51.4234 15.1195 51.4465C16.547 51.2839 19.7222 51.2513 21.7915 51.1097C22.46 51.0639 21.1733 51.0902 21.1998 51.0865C21.9501 51.0138 23.1582 50.9832 22.2583 51.0755C24.092 50.9399 23.8263 51.0043 25.2352 50.9398C25.3079 50.9365 24.7011 50.9282 25.8151 50.8586C26.3371 50.826 29.1227 50.6907 29.4941 50.6398C29.6468 50.6185 28.2266 50.5412 28.0583 50.6751C25.0255 50.7609 27.093 50.7793 25.9157 50.8335C25.7352 50.8416 26.1471 50.7514 23.1846 50.9281C23.743 50.7744 27.1609 50.7033 27.7453 50.6597C28.9503 50.5697 23.9747 50.7456 23.0672 50.8883C23.4888 50.7691 22.7139 50.8921 21.6052 50.9418C20.3917 50.9963 20.9191 50.9413 20.2626 50.973C18.4671 51.0593 19.2148 51.0928 17.7316 51.1019C19.1841 51.2261 15.199 51.2504 14.0376 51.2557C15.9228 51.1544 17.8079 51.0531 19.693 50.9518C19.5847 50.9468 19.4764 50.9418 19.3681 50.9369C19.8648 50.9142 20.3616 50.8916 20.8583 50.8689C20.7792 50.8826 20.7001 50.8962 20.621 50.9098C23.1789 50.7221 23.8073 50.7632 24.0162 50.7539C26.7049 50.6318 29.81 50.4806 32.528 50.349C32.9358 50.3292 32.6528 50.2792 35.6275 50.1849C36.5763 50.1547 35.6836 50.2476 36.7579 50.188C38.0956 49.9885 38.0754 50.0969 38.4751 50.0777C39.622 50.022 40.3214 49.9547 40.4274 49.9493C41.8441 49.8753 43.9198 49.7802 45.4761 49.6998C45.5053 49.6979 44.6934 49.6959 45.705 49.6591C46.0603 49.6462 49.2536 49.668 52.0348 49.4755C51.3102 49.4987 50.5855 49.5219 49.8608 49.5452C50.7131 49.5205 56.6771 49.1867 55.216 49.2103C54.3203 49.2248 52.1427 49.4443 51.8979 49.3467C53.8849 49.2831 64.8476 48.7024 65.7026 48.6864C65.8208 48.6843 65.096 48.755 65.2594 48.7516C65.3858 48.7489 67.8971 48.6187 68.2313 48.6161C68.4301 48.6146 67.3213 48.6902 67.4122 48.6986C67.4916 48.7038 70.629 48.5669 70.8059 48.5138C70.0365 48.569 67.8708 48.6584 69.0044 48.5659C69.1502 48.5541 69.9084 48.5461 70.0855 48.5316C71.7292 48.3973 66.8101 48.649 66.0487 48.6854C69.1363 48.479 73.9193 48.3139 77.4982 48.1033C78.9468 48.0701 75.3559 48.2639 76.9944 48.2152C80.3936 48.114 77.8956 48.1202 78.0009 48.1104C78.8426 48.0322 81.7254 48.0928 81.7195 47.9405C82.9518 47.9037 82.5542 47.9422 84.2908 47.838C84.0617 47.8386 83.8326 47.8391 83.6035 47.8397C85.5283 47.658 89.6219 47.6824 89.3167 47.7142C88.4961 47.7995 86.3665 47.8318 86.185 47.8423C85.9162 47.8578 85.1807 48.0483 82.2324 48.0529C81.0329 48.2149 86.8982 47.8967 84.232 48.0967C86.0344 47.9977 93.4548 47.7101 94.5203 47.6128C94.6474 47.6007 94.049 47.5263 95.8839 47.49C96.755 47.4728 94.6575 47.5757 95.0567 47.5799C96.285 47.5927 112.941 46.7386 116.105 46.5813C116.311 46.5713 116.237 46.6069 116.439 46.5969C117.059 46.5659 119.316 46.4086 120.426 46.3695C118.124 46.4217 122.589 46.2006 123.725 46.152C125.449 46.0783 125.345 46.1398 126.091 46.1157C128.963 46.0227 133.404 45.6732 135.64 45.6902C135.512 45.5719 139.5 45.564 141.31 45.4773C142.728 45.4094 144.781 45.2275 142.865 45.2702C145.312 45.1573 147.888 45.0092 150.183 44.8903C150.562 44.8706 150.042 44.9327 150.689 44.8979C150.748 44.8945 150.827 44.8546 151.383 44.8239C155.971 44.5699 153.742 44.7547 154.602 44.7355C155.083 44.7248 155.438 44.7139 155.698 44.7033C153.023 44.8401 149.938 45.0039 149.113 45.0449C149.821 45.0902 155.042 44.7421 156.573 44.6892C156.626 44.6874 156.444 44.7402 156.497 44.7379C156.499 44.7378 156.5 44.7378 156.501 44.7377C157.075 44.7133 160.726 44.52 159.972 44.5042C159.769 44.5001 158.088 44.5816 156.094 44.6831C156.633 44.6471 156.228 44.6176 156.323 44.6109C157.477 44.5306 160.309 44.4413 161.313 44.3991C161.542 44.3894 161.524 44.3587 161.562 44.3568C162.475 44.3197 162.105 44.4276 163.037 44.2896C164.695 44.3213 159.94 44.4565 160.278 44.5129C160.538 44.5563 171.089 44.0145 171.053 43.9279C171.09 43.9356 171.236 43.9402 171.534 43.9391C172.196 43.9367 175.133 43.785 175.639 43.7441C175.724 43.7368 175.686 43.653 175.792 43.647C176.057 43.6322 179.65 43.5251 180.989 43.4095C180.264 43.4327 179.539 43.4558 178.815 43.4789C183.187 43.2661 182.51 43.2734 181.052 43.3185C180.979 43.3218 180.908 43.322 180.839 43.3251C179.709 43.3609 178.26 43.4129 178.238 43.4073C178.186 43.3941 180.905 43.2508 182.727 43.1737L181.144 44.9175C181.095 43.7405 181.072 42.9373 181.131 43.4958C181.14 43.5827 181.17 44.29 181.199 44.9149L182.729 43.228C181.927 43.2652 181.261 43.3003 182.218 43.2858C182.292 43.2846 182.484 43.2762 182.731 43.2642L181.235 44.9131C181.198 44.1629 181.129 42.8958 181.129 42.8085C181.132 42.3635 181.227 43.7527 181.314 44.9092L182.735 43.3438C181.873 43.4086 181.14 43.4687 181.393 43.4817C181.806 43.4417 182.262 43.4105 182.737 43.3833L181.354 44.9073C181.304 44.0419 181.268 43.1103 181.217 42.2459C181.181 41.6365 181.131 41.4888 181.126 41.4136C181.061 40.29 181.136 40.9187 181.117 40.5435C181.106 40.3421 180.903 38.1315 181.055 38.5438C180.604 31.2495 180.86 36.5295 181.085 41.0066C180.968 39.5942 180.857 36.8192 180.786 35.5751C180.76 35.1287 180.729 35.3955 180.683 34.6415C180.59 33.0897 180.281 25.6741 180.199 23.7423C180.272 24.9276 180.303 24.5785 180.256 23.6632C180.208 22.7477 180.181 23.5199 180.166 23.3417C180.149 23.1506 179.971 18.8539 179.928 18.1396C180.108 21.3722 180.121 20.6404 179.993 17.8955C180.026 18.2916 180.059 18.6877 180.092 19.0838C179.994 17.4761 179.903 14.0903 179.836 13.1613C179.826 13.0157 179.811 13.5417 179.805 13.4598C179.748 12.645 179.655 9.868 179.635 9.73951C179.618 9.63059 179.642 10.8159 179.604 10.3774C179.596 10.2859 179.595 9.14207 179.527 8.01876C179.502 7.602 179.476 7.85494 179.469 7.75005C179.408 6.87541 179.497 7.38903 179.409 5.78936C179.345 4.61743 179.24 3.74725 179.182 2.1261C179.328 6.49434 179.231 4.26603 179.118 2.09742L180.809 3.63185C180.335 3.65647 179.864 3.68182 179.465 3.70551C179.108 3.72666 179.417 3.78085 177.286 3.85054C181.812 3.50594 175.99 3.84726 174.799 3.90369C174.733 3.90644 174.709 3.86202 174.124 3.88963C174.075 3.89207 174.147 3.91938 173.604 3.94807C168.454 4.22013 171.746 4.02564 170.766 4.04278C170.349 4.05006 167.846 4.21503 167.172 4.24881C167.016 4.25644 167.086 4.22102 166.486 4.25138C165.424 4.30518 164.475 4.38534 163.774 4.42202C163.692 4.42615 163.686 4.37589 162.358 4.45668C161.985 4.47937 161.567 4.51761 162.098 4.50638C163.86 4.46872 167.193 4.22434 169.184 4.17548C171 4.13086 165.282 4.41229 164.984 4.42697C164.875 4.43242 165.991 4.35322 164.856 4.40329C163.887 4.44616 162.12 4.61913 160.675 4.6702C160.565 4.67413 159.408 4.65624 159.461 4.64936C159.509 4.64387 161.28 4.54191 161.021 4.53302C160.991 4.53208 159.865 4.58719 159.717 4.5784C159.536 4.56777 159.041 4.40126 158.801 4.40816C158.183 4.42631 158.587 4.45018 158.187 4.46652C157.331 4.50167 154.36 4.58946 154.266 4.66002C154.757 4.64014 155.248 4.62026 155.738 4.60039C153.01 4.7395 154.174 4.71113 153.788 4.74224C153.373 4.77579 153.487 4.71221 152.567 4.75138C152.367 4.75989 148.518 4.95864 148.59 4.97954C150.716 4.83765 149.93 4.94748 150.029 4.94399C150.402 4.93057 150.876 4.86733 151.376 4.84387C154.896 4.67949 151.35 4.91495 152.181 4.89095C152.468 4.88257 153.036 4.82068 153.157 4.81655C153.552 4.8031 153.56 4.84766 153.823 4.83127C154.436 4.79309 153.717 4.76434 153.765 4.75868C154.312 4.69236 156.463 4.63756 155.129 4.77153C155.933 4.75748 156.023 4.66896 156.661 4.67164C157.931 4.6767 156.033 4.75162 155.52 4.78758C153.678 4.91679 153.13 4.91109 150.521 5.04868C149.581 5.09814 148.47 5.19292 148.034 5.2163C147.76 5.23103 145.159 5.2149 145.094 5.44069C144.085 5.46809 142.496 5.39846 141.458 5.45552C140.525 5.50685 140.826 5.57104 140.739 5.57829C140.606 5.58954 139.478 5.63803 139.097 5.66763C138.651 5.70242 138.875 5.72159 138.167 5.76821C136.404 5.88412 136.446 5.80168 136.264 5.80527C134.156 5.84714 135.083 5.9165 134.617 5.94831C134.183 5.97779 128.086 6.22947 126.804 6.32056C127.325 6.27917 127.847 6.23779 128.368 6.19641C127.431 6.1917 126.445 6.32132 126.423 6.23246C126.241 6.38648 124.307 6.3832 123.728 6.41503C123.5 6.42764 123.519 6.45145 123.234 6.46637C122.118 6.52483 119.6 6.62723 118.996 6.6691C116.38 6.84995 123.079 6.61489 123.606 6.59474C122.551 6.6443 116.584 6.96622 119.331 6.90278C119.756 6.89295 120.504 6.7917 120.742 6.77761C122.353 6.68274 121.088 6.8023 121.215 6.8017C121.43 6.80019 122.489 6.69259 122.769 6.68569C122.863 6.68331 122.264 6.76507 123.801 6.69161C123.047 6.77927 118.724 6.94733 118.157 6.9868C117.956 7.00087 119.227 7.04841 115.523 7.12196C115.567 7.13 115.61 7.13803 115.653 7.14606C113.594 7.25011 111.535 7.35415 109.476 7.4582C109.698 7.42404 110.852 7.32116 109.396 7.40172C108.558 7.44813 109.181 7.46994 109.105 7.47516C108.353 7.52593 95.0351 8.15453 92.4545 8.28548C91.5767 8.32994 89.1316 8.49033 88.9451 8.50015C87.8295 8.55844 83.8772 8.72291 83.0893 8.76702C82.5974 8.79467 83.0674 8.81537 82.6276 8.83465C82.2188 8.85252 82.6402 8.79006 82.5187 8.79419C81.5125 8.82776 73.8774 9.25318 72.0619 9.30158C73.1709 9.2597 78.6984 8.90765 78.5857 8.88347C78.5615 8.88058 77.2156 8.91388 76.939 8.94289C76.4791 8.9288 74.9114 9.11564 74.0547 9.13542C73.9579 9.13764 74.3359 9.05716 72.8083 9.11996C72.2821 9.14163 70.907 9.25676 69.518 9.26982C67.5123 9.39319 56.9567 9.82452 56.2359 9.92625C56.2146 9.93081 57.7016 9.88169 56.6991 9.95772C55.3662 10.0588 56.5589 9.87824 55.0029 9.94312C54.7684 9.95288 50.4416 10.1751 50.3003 10.1896C48.9929 10.3219 52.7757 10.1663 52.7231 10.1769C52.5923 10.2034 49.4509 10.3679 49.323 10.3694C49.2012 10.3703 51.7592 10.155 48.6817 10.3389C49.0349 10.3327 49.3882 10.3264 49.7415 10.3202C48.2944 10.4116 48.1533 10.3553 47.8023 10.3685C46.7111 10.4092 45.5359 10.5621 43.7828 10.5287C43.3192 10.5197 44.0846 10.4477 44.0265 10.4458C43.4694 10.4305 42.7668 10.5778 41.9281 10.534C41.8649 10.5308 43.8048 10.3862 40.41 10.5507C40.644 10.5474 40.878 10.5442 41.1121 10.5409C40.6343 10.5821 37.1975 10.7596 36.7348 10.7777C35.3833 10.8308 36.5586 10.7157 35.2011 10.7885C36.0758 10.8257 31.9474 11.0363 32.1816 10.9564C31.6091 11.0702 28.0984 11.1741 26.4495 11.252C25.4091 11.3012 23.2888 11.4416 22.9581 11.4533C22.5551 11.4674 22.6746 11.4029 21.9469 11.4251C21.7394 11.4315 19.5769 11.5794 17.6741 11.6109C17.3053 11.6171 16.5271 11.5552 17.2103 11.4972C18.3797 11.3979 20.5996 11.3704 20.5685 11.3131C20.5322 11.2519 17.5492 11.434 16.7454 11.4648C13.0345 11.6067 15.1731 11.4361 15.0767 11.4205C14.827 11.3833 12.8004 11.4832 12.7156 11.4828C12.3642 11.4802 13.7984 11.3717 13.8187 11.3407C13.8429 11.3004 11.886 11.3246 12.3295 11.29C12.9643 11.2404 14.7624 11.2121 14.8761 11.2038C16.3559 11.094 14.3206 11.1023 13.7587 11.0852C13.5884 11.0798 14.2634 11.0246 14.1225 11.0274C11.9721 11.0709 13.676 11.1761 12.247 11.2329C10.972 11.2835 12.6089 11.1447 12.56 11.1438C12.4969 11.1433 10.973 11.214 10.7335 11.2046C10.6154 11.1998 14.5703 10.8924 14.4024 10.8487C13.1393 10.9214 11.8762 10.9941 10.6131 11.0668C10.5107 11.0042 12.3307 10.9656 12.5184 10.9496C12.8961 10.9173 11.8392 10.9344 11.8834 10.9108C11.9071 10.8961 13.1433 10.7877 12.0234 10.822C11.6385 10.8338 10.8338 10.9202 9.43081 10.9398C14.3021 10.6418 10.9225 10.7677 10.7776 10.7508C10.6357 10.7338 12.9601 10.5647 10.1359 10.7117C10.0071 10.5864 10.1948 10.6672 10.9963 10.6053C11.9782 10.5293 9.70364 10.5963 13.2988 10.4548C13.0914 10.4033 10.2032 10.5477 10.05 10.5502C9.91777 10.5522 10.5583 10.4908 10.3289 10.4917C7.61539 10.5044 9.47785 10.4684 8.68993 10.4306C8.61985 10.4272 6.05921 10.5233 8.00706 10.4177C11.5557 10.2255 13.0435 10.2406 13.631 10.0256C11.0015 10.0722 7.82607 10.3465 7.02803 10.3873C5.80653 10.4495 7.0702 10.3501 6.91915 10.3468C6.8667 10.3459 5.81411 10.4001 5.79982 10.3978C5.04228 10.2923 10.4863 10.1681 12.1969 10.0604C11.737 10.0614 11.2772 10.0624 10.8173 10.0634C11.4398 10.0324 12.0622 10.0014 12.6847 9.97032C9.71699 10.0714 12.5794 9.95922 13.3133 9.80848C13.478 9.77461 11.5319 9.91337 13.7509 9.73384C12.1109 9.79677 12.6326 9.74794 11.1499 9.85232C11.1859 9.80441 14.523 9.5905 15.8391 9.50299C11.1832 9.67692 13.845 9.71713 9.81789 9.82286C9.07467 9.91606 10.9943 9.81184 10.8382 9.82884C10.278 9.88993 8.9585 9.90006 7.37538 10.0957C7.11762 10.1277 8.21522 10.1345 6.59516 10.2102C6.41598 10.2185 5.3813 10.2173 5.39543 10.2129C5.53032 10.1662 6.55248 10.1317 6.59384 10.1129C6.63264 10.0951 5.49354 10.1599 5.48939 10.1557C5.45194 10.1072 6.43927 10.0904 6.29533 10.0816C5.98445 10.0624 1.88018 10.1531 7.23135 9.92531C2.79067 10.1976 6.66514 10.0084 8.39448 9.90263C8.83549 9.87576 8.94579 9.84033 9.57407 9.79942C10.3822 9.7467 11.3296 9.7152 11.7478 9.68939C12.1977 9.66149 9.63666 9.71459 13.3367 9.55637C11.4507 9.57711 8.12912 9.8136 6.27749 9.85375C2.54174 9.93457 8.87293 9.60598 9.53211 9.56428C9.70773 9.55313 9.11657 9.54118 9.2336 9.53301C9.42499 9.51991 13.0197 9.36435 13.3724 9.31363C13.7242 9.26298 12.0562 9.37901 11.9435 9.34945C11.8671 9.32957 16.2005 9.07758 13.8528 9.17532C12.2347 9.24275 9.25764 9.48191 8.75048 9.40463C11.1289 9.28085 13.5074 9.15706 15.8859 9.03327C14.582 9.05775 13.2781 9.08223 11.9741 9.1067C14.6436 8.96494 16.9539 8.89666 19.4872 8.71831C13.3875 8.88992 21.4609 8.52346 21.549 8.50407C21.5782 8.49361 19.1748 8.50936 18.788 8.50968C20.9115 8.36791 27.3688 8.03579 23.5843 8.09484C24.2715 8.08962 25.9289 7.93985 25.9068 7.93569C25.6932 7.89105 22.0727 8.1023 22.6611 8.02409C23.3429 7.93338 24.306 7.96487 25.3589 7.90756C30.762 7.61297 29.2653 7.39845 34.6867 7.18095C34.5784 7.17598 34.4702 7.17101 34.3619 7.16604C40.2531 6.89659 46.1443 6.62715 52.0356 6.3577C54.336 6.15846 60.4669 5.80773 63.48 5.6713C64.0867 5.64377 67.0671 5.54523 67.2922 5.54238C67.7092 5.53762 65.421 5.65449 66.4566 5.63326C66.6752 5.62861 71.7183 5.40336 71.3554 5.37191C70.7901 5.39363 69.023 5.50399 68.733 5.5065C66.6962 5.52278 82.2438 4.83465 83.0123 4.76414C82.6673 4.76494 82.3222 4.76574 81.9772 4.76655C82.9585 4.72679 83.9397 4.68704 84.921 4.64729ZM40.0384 10.7637C39.4522 10.8413 37.9749 10.876 37.1038 10.9321C35.9003 11.0098 33.8619 11.2982 34.7343 11.0659C36.5023 10.9652 38.2704 10.8644 40.0384 10.7637ZM65.8929 9.58314C64.7055 9.61429 65.6203 9.46382 66.5947 9.46067C66.7027 9.46044 67.4994 9.54081 65.8929 9.58314ZM53.456 10.136C53.5059 10.1321 54.531 10.0852 54.5669 10.0852C55.4881 10.0831 52.3975 10.2243 53.456 10.136ZM113.521 7.16846C112.214 7.23641 113.165 7.28673 113.976 7.20772C114.027 7.20273 113.607 7.16406 113.521 7.16846ZM112.591 7.21099C111.572 7.17405 109.536 7.44782 111.161 7.35142C111.318 7.342 112.639 7.21291 112.591 7.21099ZM61.6631 9.74611C61.795 9.70661 63.0192 9.66322 63.542 9.64578C63.5293 9.67662 62.1753 9.71757 61.6631 9.74611ZM92.6827 8.2325C92.7334 8.20402 88.481 8.41169 88.193 8.45996C88.8634 8.41289 92.635 8.2582 92.6827 8.2325ZM103.587 7.66713C103.479 7.66787 102.01 7.74595 102.054 7.76677C102.772 7.76205 104.073 7.66391 103.587 7.66713ZM125.262 6.61743C125.342 6.60781 124.234 6.51538 126.846 6.4849C127.229 6.48039 125.864 6.58477 126.001 6.58341C126.286 6.5798 126.511 6.57364 126.692 6.56572C125.479 6.63668 124.218 6.70353 124.095 6.7006C123.52 6.68663 125.227 6.62154 125.262 6.61743ZM136.637 5.95691C136.886 5.921 138.484 5.85624 138.848 5.8484C138.91 5.84721 138.641 5.9229 139.36 5.88334C139.938 5.85148 139.072 5.82931 140.197 5.78499C141.335 5.74013 139.818 5.85942 139.917 5.85786C140.051 5.85567 141.808 5.74164 141.755 5.78151C141.716 5.81106 139.831 5.88379 139.365 5.91225C138.769 5.94871 139.494 5.95957 138.497 5.99805C137.87 6.02228 138.213 5.92465 138.081 5.92698C137.97 5.92907 135.782 6.08177 136.64 5.95701C136.639 5.95697 136.638 5.95695 136.637 5.95691ZM127.02 6.54622C126.929 6.55338 126.822 6.56003 126.692 6.56572C126.802 6.55928 126.912 6.55268 127.02 6.54622ZM43.4636 10.562C44.0814 10.5571 42.2529 10.6778 41.5583 10.6787C41.5451 10.653 43.3653 10.5629 43.4636 10.562ZM128.143 6.42583C129.948 6.35859 128.622 6.45076 127.02 6.54622C127.529 6.50633 127.537 6.44844 128.143 6.42583ZM76.939 8.94289C77.0153 8.94522 77.064 8.95228 77.0709 8.96742C76.8701 8.96023 76.8518 8.95204 76.939 8.94289ZM81.1478 8.76637C82.5879 8.64941 79.6574 8.79343 79.6776 8.82617C79.687 8.83845 81.0902 8.77104 81.1478 8.76637ZM115.198 7.09175C115.065 7.09355 117.108 6.85219 114.137 7.10304C115.727 7.04274 114.051 7.13947 114.077 7.1507C114.143 7.18329 116.81 7.01955 117.401 7.00634C117.861 6.91997 115.634 7.08578 115.201 7.09159C115.2 7.09164 115.199 7.0917 115.198 7.09175ZM157.147 4.99668C156.788 5.05167 155.64 5.09524 154.866 5.13057C155.226 5.07558 156.373 5.032 157.147 4.99668ZM46.6864 49.5994C51.9877 49.3076 52.6821 49.4269 47.827 49.6019C47.732 49.6052 46.3652 49.6305 46.6864 49.5994ZM92.2 47.4317C92.703 47.474 91.0498 47.5649 89.9624 47.5901C89.7164 47.5958 88.8044 47.5725 89.8414 47.509C89.8122 47.5912 91.4184 47.5442 92.2 47.4317ZM129.16 6.33381C129.683 6.264 131.301 6.21716 132.154 6.18251C131.635 6.24423 129.914 6.31116 129.16 6.33381ZM64.1161 48.8339C64.6753 48.8118 65.0499 48.7356 64.9531 48.7355C64.52 48.7344 63.4776 48.8318 64.1161 48.8339ZM123.942 6.58001C123.867 6.55709 126.006 6.42775 126.159 6.48603C125.701 6.50349 123.996 6.59406 123.942 6.58001ZM155.687 5.04757C155.354 5.05022 157.074 4.94261 157.596 4.93072C157.555 4.96096 155.905 5.04576 155.687 5.04757ZM73.1142 48.3778C73.6151 48.3585 74.8656 48.2994 75.0029 48.2693C75.1735 48.2318 73.3404 48.3306 73.1142 48.3778ZM4.28 29.8049C4.28744 29.7412 4.45708 31.6742 4.47967 32.5361C4.5223 34.1727 4.2759 29.8737 4.28 29.8049ZM58.8265 49.1203C57.2453 49.1419 59.0005 49.1101 58.9286 49.0556C57.8662 49.105 55.2239 49.2303 57.0432 49.1991C57.3976 49.193 58.3311 49.1406 58.8265 49.1203ZM60.2835 49.0691C60.4518 49.0421 61.5867 48.9278 60.6033 48.9797C60.1487 49.0038 59.419 49.1051 60.2835 49.0691ZM4.8877 41.8029C4.90503 43.2202 4.618 36.7333 4.61794 36.5464C4.61791 36.4477 4.61925 36.383 4.62126 36.346C4.59345 36.1086 4.53111 34.8837 4.56534 34.7399C4.57976 35.1074 4.63201 36.11 4.6331 36.2266C4.6336 36.277 4.63359 36.3145 4.63299 36.3404C4.68964 36.7709 4.88427 41.5313 4.8877 41.8029ZM5.3561 52.5519C5.20194 50.9367 5.31666 50.6438 5.32757 50.7832C5.46569 52.543 5.31508 51.3982 5.31326 51.4525C5.31184 51.576 5.41657 52.8258 5.35586 52.5468C5.35594 52.5485 5.35602 52.5502 5.3561 52.5519ZM4.97337 44.0067C4.96846 43.9403 4.90653 42.581 4.90585 42.525C4.89506 41.409 5.0705 45.2554 4.97337 44.0067ZM145.21 5.45091C146.183 5.41651 145.231 5.51012 144.584 5.52447C144.53 5.52537 144.351 5.48125 145.21 5.45091ZM61.0601 49.0186C61.2861 49.0166 67.0589 48.7705 66.7087 48.7158C66.219 48.748 59.6574 49.0294 61.0601 49.0186ZM104.19 46.9443C103.173 46.9931 104.279 46.8718 104.823 46.8706C105.025 46.8702 104.447 46.9319 104.19 46.9443ZM121.052 6.65882C119.997 6.7471 120.21 6.61226 121.128 6.61042C121.164 6.61035 121.093 6.65536 121.052 6.65882ZM96.058 47.2998C99.5659 47.0887 98.7451 47.3428 94.1784 47.4919C94.3208 47.4755 94.4631 47.459 94.6054 47.4426C89.337 47.666 94.2445 47.445 95.5336 47.3705C96.0235 47.3422 95.6109 47.3264 96.0546 47.2997C96.0557 47.2998 96.0569 47.2998 96.058 47.2998ZM109.543 46.6888C112.93 46.6765 106.472 46.8907 104.622 47.0002C106.414 46.8506 108.75 46.7467 105.57 46.8367C110.215 46.599 108.284 46.7532 108.47 46.7492C108.689 46.7442 109.398 46.6892 109.543 46.6888ZM100.627 47.1222C100.431 47.1361 98.9578 47.1766 98.4278 47.2074C99.1668 47.1196 101.922 47.0292 100.627 47.1222ZM13.9951 51.2874C13.8748 51.3339 13.574 51.3785 12.4113 51.4197C12.7692 51.3819 13.5105 51.3283 13.9951 51.2874ZM38.9106 10.6042C38.1103 10.6401 36.5164 10.7021 37.007 10.7211C37.0606 10.7221 38.9093 10.6283 38.9106 10.6042ZM77.8238 48.2386C77.9942 48.2353 82.3953 48.0252 80.8731 48.0542C80.414 48.0629 76.41 48.2628 77.8238 48.2386ZM55.0338 49.3388C55.4021 49.3213 56.898 49.2411 56.9293 49.23C57.029 49.1918 55.1932 49.2992 55.0338 49.3388ZM34.8721 10.7584C34.7665 10.7593 32.323 10.8853 32.5926 10.892C33.1043 10.9045 35.234 10.7554 34.8721 10.7584ZM148.745 5.18411C148.95 5.1727 149.222 5.20369 149.293 5.20076C149.459 5.19333 153.198 4.99499 151.772 5.12091C151.534 5.14195 146.152 5.38116 145.452 5.40951C145.178 5.3621 147.48 5.30822 148.039 5.27486C148.137 5.2689 148.198 5.21519 148.744 5.18444C148.744 5.18433 148.745 5.18422 148.745 5.18411ZM7.94416 51.6238C7.80223 51.6643 4.45644 51.8502 3.6215 51.8655L5.35957 53.4428C5.35729 53.3181 5.35881 53.2494 5.36519 53.2558C5.36844 53.3179 5.37169 53.38 5.37495 53.4421L3.62076 51.8501C5.06188 51.7747 6.50301 51.6993 7.94416 51.6238ZM10.1777 51.5219C11.1172 51.5036 8.9206 51.6192 8.27242 51.6386C8.2643 51.613 10.0408 51.5245 10.1777 51.5219ZM63.3795 49.0781C63.8208 49.0473 62.4595 49.057 62.7629 49.0314C62.9573 49.0151 63.9455 48.9883 64.2595 48.9555C64.3485 48.9456 63.339 48.9416 63.0478 48.958C62.6343 48.9811 63.0376 49.0032 62.5861 49.0254C61.0873 49.099 59.757 49.1338 58.3519 49.2026C58.225 49.2089 59.2105 49.1905 58.1281 49.2426C57.9609 49.2507 56.9538 49.2558 55.6594 49.325C52.8065 49.599 50.7006 49.568 47.0742 49.7928C47.2118 49.7989 49.9271 49.7014 50.087 49.695C53.1212 49.5701 58.5551 49.309 61.732 49.1552C62.5471 49.1158 62.1498 49.1064 62.5009 49.0883C62.7784 49.0741 62.451 49.1431 63.3795 49.0781ZM39.3342 10.5543C38.9502 10.5198 37.6141 10.6182 36.7595 10.6569C37.0626 10.6901 38.4986 10.583 39.3342 10.5543ZM29.9184 50.6056C30.3467 50.5828 31.6752 50.5344 31.7841 50.5131C31.9245 50.4854 30.0072 50.5652 29.9184 50.6056ZM169.833 4.17649C169.874 4.17304 170.904 4.1259 170.943 4.12568C171.866 4.12355 168.775 4.26472 169.833 4.17649ZM179.759 15.7685C179.803 16.5495 179.858 17.3368 179.828 17.6014C179.81 17.1032 179.724 15.6783 179.759 15.7685ZM177.873 43.4385C178.037 43.487 175.683 43.5646 175.239 43.5811C175.402 43.5481 177.752 43.4037 177.873 43.4385ZM14.1729 51.4559C12.7351 51.5223 13.0427 51.5928 12.128 51.5985C11.9788 51.5992 11.4887 51.445 13.0722 51.4349C13.3572 51.4331 12.2467 51.5292 14.1729 51.4559ZM93.435 47.5262C93.0712 47.5812 91.9279 47.6255 91.1555 47.66C91.3273 47.6239 92.8858 47.5555 93.435 47.5262ZM30.456 10.9299C29.7792 10.91 26.6656 11.1001 27.4382 11.0975C27.548 11.0967 30.0189 10.9491 30.456 10.9299ZM132.808 5.98671C134.087 5.88315 131.432 5.99909 130.596 6.08019C130.975 6.05913 132.721 5.99363 132.808 5.98671ZM181.044 41.6026C181.048 41.6641 181.11 43.0234 181.111 43.0843C181.122 44.2003 180.947 40.354 181.044 41.6026ZM179.434 7.66009C179.492 8.14816 179.62 11.3691 179.621 12.0924C179.538 11.4004 179.362 7.05443 179.434 7.66009ZM20.0876 51.1448C19.062 51.1963 18.0884 51.233 17.1455 51.2639C17.3423 51.2256 19.9782 51.1286 20.0876 51.1448ZM181.052 43.3185C180.979 43.3218 180.908 43.322 180.839 43.3251C180.911 43.3228 180.983 43.3207 181.052 43.3185ZM43.0459 50.0515C43.9061 50.0212 43.725 49.9773 43.672 49.9782C43.0245 49.9926 42.0722 50.0859 43.0459 50.0515ZM38.3483 10.5239C38.0481 10.4909 36.6042 10.5978 35.772 10.6269C36.0151 10.6526 37.6787 10.5614 38.3483 10.5239ZM113.167 46.6104C114.25 46.6094 109.859 46.8822 108.931 46.894C108.861 46.8655 113.009 46.611 113.167 46.6104ZM128.824 6.10863C128.736 6.07564 126.893 6.20996 127.286 6.20851C127.534 6.20765 128.876 6.12922 128.824 6.10863ZM106.721 46.9795C106.309 47.0108 105.345 47.0208 105.682 46.982C106.116 46.9323 106.827 46.9711 106.721 46.9795ZM69.6847 48.8056C69.8655 48.8025 72.291 48.6466 71.2864 48.6574C70.5893 48.6648 70.4811 48.7238 70.3176 48.7319C70.1347 48.7406 66.2348 48.8639 69.6847 48.8056ZM137.777 45.4493C136.862 45.508 135.754 45.5451 134.795 45.5926C135.185 45.5507 137.386 45.4376 137.777 45.4493ZM135.938 5.75364C135.715 5.7494 129.655 6.0342 133.099 5.91353C133.3 5.90641 136.615 5.76639 135.938 5.75364ZM14.1729 51.4559C14.3543 51.4475 14.5636 51.4391 14.8065 51.4311C14.5654 51.4413 14.3556 51.4489 14.1729 51.4559ZM30.5019 50.6696C30.1722 50.7127 31.8401 50.6391 32.3315 50.6008C32.4814 50.5604 30.5473 50.6636 30.5019 50.6696ZM134.724 45.6339C134.173 45.6761 133.17 45.7082 132.486 45.7432C132.601 45.7124 134.484 45.6199 134.724 45.6339ZM173.507 43.7813C172.41 43.8196 171.061 43.8919 171.041 43.9237C171.018 43.92 170.965 43.9174 170.876 43.9166C170.787 43.9158 169.613 43.9871 169.102 44.0014C166.043 44.0872 180.901 43.3924 172.294 43.8969C172.699 43.8584 173.103 43.8198 173.507 43.7813ZM179.295 3.30012C179.298 3.02149 179.274 2.52037 179.247 2.09119L180.803 3.50349C180.271 3.53744 179.849 3.57596 180.1 3.57197C180.198 3.57036 180.481 3.55915 180.805 3.54423L179.206 2.09317C179.239 2.81059 179.29 3.73056 179.295 3.30012ZM180.479 27.2503C180.477 27.0639 180.368 25.3631 180.346 25.3203C180.373 26.2997 180.489 28.0993 180.479 27.2503ZM177.225 3.64316C176.834 3.65645 176.338 3.74102 176.384 3.74143C176.783 3.74421 177.883 3.64496 177.225 3.64316ZM17.1591 51.4741C17.7412 51.4632 19.5921 51.3297 19.9936 51.2702C20.069 51.2743 20.2719 51.2745 20.6435 51.2686C20.6424 51.2686 20.6412 51.2687 20.6401 51.2688C21.1418 51.2606 36.1189 50.5518 26.0696 50.9622C25.7549 50.975 26.1864 50.99 24.906 51.0458C24.8214 51.0494 24.7779 51.0222 24.5168 51.0335C23.9154 51.0595 20.7131 51.1964 20.0707 51.2511C20.065 51.246 20.0231 51.2429 19.9345 51.2424C19.1433 51.2385 16.7075 51.4827 17.1591 51.4741ZM180.648 30.6244C180.642 30.2815 180.579 29.1977 180.548 29.0866C180.561 29.6249 180.661 31.4206 180.648 30.6244ZM135.745 5.65694C135.046 5.66957 133.279 5.79499 133.815 5.79015C134.143 5.78722 136.551 5.64226 135.745 5.65694ZM180.107 19.7653C180.271 23.7682 180.156 20.7202 180.224 21.3312C180.185 20.8092 180.146 20.2872 180.107 19.7653ZM4.95044 48.456C4.97268 49.0945 4.86169 48.3483 4.86811 47.6437C4.87028 47.4226 4.93786 48.0988 4.95044 48.456ZM3.52989 19.6449C3.49013 20.1927 3.40002 17.5311 3.49569 18.5655C3.49955 18.6136 3.53052 19.6058 3.52989 19.6449ZM4.47929 39.7794C4.54535 40.2103 4.56438 40.4921 4.61242 41.7128C4.51212 39.9072 4.55352 41.5843 4.47929 39.7794ZM171.053 43.9279C171.046 43.9265 171.04 43.9254 171.041 43.9237C171.049 43.9249 171.053 43.9263 171.053 43.9279ZM173.463 3.83735C172.961 3.82347 171.557 3.89437 171.977 3.91251C172.017 3.91411 173.259 3.87551 173.463 3.83735ZM19.9936 51.2702C19.9267 51.2666 19.9604 51.2605 20.0707 51.2511C20.0761 51.256 20.0478 51.2622 19.9936 51.2702ZM179.309 2.28794C179.279 2.23917 179.371 4.37644 179.379 4.462C179.487 5.68589 179.354 3.17011 179.309 2.28794ZM121.615 6.30207C121.505 6.31039 122.219 6.34943 122.654 6.2995C122.99 6.26079 122.027 6.27075 121.615 6.30207ZM4.26 35.6372C4.22724 34.9606 4.181 34.008 4.2074 33.8306C4.22402 34.2842 4.2863 35.6499 4.26 35.6372ZM3.53246 20.6885C3.61229 21.4862 3.70076 23.3129 3.75056 24.4795C3.69757 24.5036 3.58156 21.4384 3.53246 20.6885ZM15.3227 51.543C15.3784 51.5425 17.0759 51.4763 16.8423 51.4514C16.5012 51.4148 14.8431 51.5465 15.3227 51.543ZM124.912 6.18129C125.669 6.11959 123.92 6.12772 123.122 6.22568C122.712 6.27589 124.784 6.19167 124.912 6.18129ZM169.077 3.99997C168.077 4.06946 170.56 3.98639 170.905 3.93177C170.444 3.9511 169.433 3.97531 169.077 3.99997ZM180.441 24.4315C180.397 21.271 180.281 22.9991 180.326 23.558C180.332 23.6367 180.442 24.5087 180.441 24.4315ZM22.6164 11.0916C22.1704 11.1284 23.8383 11.1026 24.0521 11.056C24.1841 11.0269 22.9015 11.0681 22.6164 11.0916ZM155.698 44.7033C155.831 44.6965 155.963 44.6897 156.094 44.6831C155.996 44.6896 155.867 44.6965 155.698 44.7033ZM159.981 4.29467C162.21 4.34095 161.971 4.23356 162.164 4.22485C162.581 4.20628 163.552 4.20091 164.338 4.15596C163.439 4.21696 162.539 4.27795 161.64 4.33895C162.352 4.31558 168.532 4.07267 168.66 4.04142C168.844 3.99686 166.901 4.10229 166.844 4.10191C166.762 4.1014 166.454 4.01726 166.273 4.02224C165.976 4.03062 160.81 4.27909 159.981 4.29467ZM180.104 17.8341C180.116 18.342 180.084 18.4882 180.105 18.7234C180.112 18.8035 180.15 18.8146 180.173 19.0883C180.15 18.6703 180.127 18.2522 180.104 17.8341ZM156.011 4.626C155.38 4.61084 158.2 4.49146 158.29 4.49219C158.774 4.49975 156.527 4.63838 156.011 4.626ZM179.931 3.45925C179.828 3.46158 177.663 3.55231 177.682 3.5768C178.255 3.56834 181.15 3.43359 179.931 3.45925ZM180.192 19.4268C180.225 20.1876 180.257 21.6272 180.305 21.4596C180.305 21.4585 180.305 21.4574 180.305 21.4562C180.267 20.7798 180.23 20.1033 180.192 19.4268ZM127.503 5.93651C126.09 5.91526 126.763 5.9961 128.012 5.96448C128.388 5.90592 127.735 5.93988 127.503 5.93651ZM122.99 6.08846C122.597 6.09135 118.557 6.30499 119.176 6.3225C119.396 6.32877 121.717 6.17347 121.824 6.17155C121.987 6.16854 121.248 6.25694 122.487 6.18644C122.414 6.17219 123.124 6.08733 122.99 6.08846ZM126.334 5.93572C124.93 5.9355 124.621 6.07644 125.675 6.0257C126.086 6.00596 126.534 5.93586 126.334 5.93572ZM132.056 5.66896C131.551 5.68148 130.208 5.7292 129.285 5.81587C130.523 5.75939 131.761 5.70291 133 5.64642C133.141 5.61582 132.497 5.65805 132.052 5.66912C132.053 5.66907 132.055 5.66901 132.056 5.66896ZM2.80223 12.2875C2.82056 13.4021 2.68256 10.839 2.68606 10.7301C2.69951 10.4067 2.79402 11.7892 2.80223 12.2875ZM13.8684 10.3714C13.5585 10.3722 13.3541 10.3353 12.6746 10.3928C13.3609 10.3941 14.0472 10.3954 14.7334 10.3967C15.2616 10.2918 14.2071 10.3707 13.8684 10.3714ZM11.2402 10.2093C11.3368 10.2027 10.8026 10.1068 12.0559 10.1273C12.9027 10.1412 8.31488 10.4172 7.48365 10.4035C8.39801 10.3341 10.4085 10.2653 11.2402 10.2093ZM3.17389 10.073C3.12049 10.0659 4.86381 9.96708 5.066 9.96413C6.1277 9.94875 3.46277 10.1111 3.17389 10.073ZM8.73869 9.82639C7.91964 9.84245 9.73081 9.73935 10.2715 9.72675C10.3249 9.74684 8.86521 9.8237 8.73869 9.82639ZM1.58794 23.6425C1.54823 24.5315 1.7645 25.3146 1.66262 23.9545C1.65778 23.8896 1.59016 23.6046 1.58794 23.6425ZM4.87294 9.86768C5.69198 9.85163 3.88082 9.95472 3.34018 9.96732C3.28886 9.94715 4.74824 9.87027 4.87294 9.86768ZM1.42132 24.2751C1.41887 25.4534 1.59835 25.0298 1.59927 24.8825C1.60168 24.2759 1.42274 22.2051 1.38271 21.7822C1.56326 24.886 1.4225 23.7203 1.42132 24.2751ZM1.80409 29.6907C1.87826 30.7802 1.78382 27.9914 1.7024 27.4623C1.73135 28.0041 1.78289 29.3809 1.80409 29.6907ZM2.06108 36.3124C2.08237 36.899 2.14983 38.6437 2.19541 38.9347C2.15868 38.2949 2.10539 36.5582 2.06108 36.3124ZM2.03137 37.6443C2.03316 38.5629 2.16812 38.7767 2.07985 37.7218C2.07643 37.6808 2.03211 37.6106 2.03137 37.6443ZM2.23637 42.7988C2.2161 43.4025 2.36977 44.0829 2.32576 43.1084C2.31247 42.8189 2.23895 42.7348 2.23637 42.7988ZM1.27799 25.7569C1.29852 26.6189 1.43852 27.7239 1.35885 25.8853C1.40333 26.5303 1.44782 27.1753 1.49231 27.8204C1.42386 25.4102 1.31287 25.5928 1.28428 24.9012C1.24446 23.9348 1.34681 24.0062 1.3872 24.1987C1.28834 23.4096 1.12417 20.0444 1.01833 18.1001C1.07586 19.8107 1.16641 22.5866 1.23215 24.2741C1.25085 24.7559 1.30057 25.222 1.31746 25.6328C1.34439 26.2913 1.27708 25.7085 1.27782 25.7535C1.27788 25.7546 1.27793 25.7557 1.27799 25.7569ZM2.56305 49.5714C2.59275 51.3413 2.65946 50.2179 2.58948 49.2205C2.58574 49.1779 2.56228 49.5274 2.56305 49.5714ZM2.51181 9.61391C4.87527 9.54995 3.16236 9.70016 8.09657 9.35891C6.02501 9.53155 7.98432 9.41625 7.58069 9.46494C7.25688 9.50368 6.03846 9.5437 6.74841 9.55566C5.81574 9.5504 1.77784 9.76019 1.59739 9.76075C1.59908 9.76066 1.60078 9.76058 1.60247 9.7605C1.4941 9.7609 1.75764 9.63438 2.51181 9.61391ZM1.74532 36.3362C1.6272 36.9327 1.87127 37.1526 1.80587 38.3172C2.05726 39.8513 1.59922 34.0556 1.71427 33.3456C2.00265 39.65 1.66006 29.1738 1.65021 33.5846C1.55544 29.9559 1.56496 32.3982 1.50937 31.84C1.45004 31.2429 1.38354 29.191 1.33394 29.2978C1.334 29.2989 1.33405 29.3 1.33411 29.3011C1.39875 30.555 1.46339 31.8089 1.52804 33.0628C1.58638 31.8296 1.67533 34.394 1.62144 35.2679C1.66273 35.624 1.70403 35.9801 1.74532 36.3362ZM1.51175 29.2331C1.51505 29.3568 1.66386 32.0837 1.67898 31.9065C1.6764 31.5415 1.47056 27.6712 1.51175 29.2331ZM0.903805 17.23C0.951013 18.2093 1.00146 19.7248 1.07179 20.2563C1.02458 19.2767 0.974136 17.761 0.903805 17.23ZM17.8394 53.8839C19.086 53.7869 15.242 53.9625 16.356 53.9518C16.4109 53.9511 17.7781 53.8886 17.8394 53.8839ZM1.90521 39.1745C1.92193 40.4459 2.03555 39.8391 1.95276 38.9006C1.94792 38.8463 1.90441 39.1158 1.90521 39.1745ZM4.42422 9.50379C4.50743 9.4647 7.93422 9.32313 8.54143 9.29337C8.198 9.3426 4.32877 9.54859 4.42422 9.50379ZM0.689411 15.5127C0.6582 17.4675 0.931658 20.1048 0.942549 20.3949C0.953298 20.6834 0.876408 20.2338 0.878122 20.2996C0.882308 20.4497 1.03585 23.5203 1.04689 23.6687C1.05503 23.7749 1.10531 23.2156 1.16038 23.8482C1.05653 22.6139 0.811708 16.9985 0.789027 16.7077C0.771245 16.4823 0.772654 18.1875 0.689575 15.5161C0.68952 15.515 0.689465 15.5138 0.689411 15.5127ZM0.960866 21.1204C0.956032 20.3517 1.06442 22.5029 1.07772 23.024C1.10709 24.1821 0.961803 21.219 0.960866 21.1204ZM1.18198 26.2961C1.18663 26.5422 1.28757 28.7597 1.33275 28.9465C1.3286 27.8947 1.17187 25.738 1.18198 26.2961ZM2.3834 50.9684C2.41595 51.544 2.46505 53.1289 2.50095 53.2182C2.4684 52.642 2.41928 51.0573 2.3834 50.9684ZM16.0987 8.66208C15.1407 8.68213 17.3567 8.56387 18.004 8.54514C18.0401 8.56445 16.1802 8.6604 16.0987 8.66208ZM1.61451 39.4041C1.62147 39.7455 1.98273 46.7004 2.0448 47.6754C2.02232 46.7198 1.68982 39.826 1.66302 39.5138C1.65511 39.4226 1.61391 39.3605 1.61451 39.4041ZM0.870389 24.3612C0.793083 23.7257 0.828519 23.3068 0.825316 23.2263C0.794164 22.4373 0.704382 20.8022 0.766442 21.1587C0.815921 22.5514 1.02406 25.6264 0.870389 24.3612ZM2.19754 51.473C2.3293 53.8341 2.15813 49.2949 2.13852 49.8924C2.13745 49.9309 2.18388 51.2288 2.19754 51.473ZM1.56331 38.6276C1.50057 38.1085 1.19543 31.1488 1.14131 30.0318C1.25896 31.029 1.24557 31.8379 1.31427 33.1817C1.33289 33.5443 1.35695 33.4461 1.35888 33.4851C1.39067 34.113 1.33467 33.6446 1.35294 34.0318C1.36458 34.2764 1.65166 39.3582 1.56331 38.6276ZM0.820608 23.9988C0.775156 23.611 0.55312 19.267 0.551705 19.0918C0.540835 17.7818 0.81349 23.6607 0.820608 23.9988ZM1.53282 39.2689C1.41621 38.5247 1.30241 35.0664 1.45716 37.4295C1.47175 37.6552 1.48332 38.6133 1.53282 39.2689ZM2.10881 51.2244C2.11146 51.3187 2.17994 52.9563 2.22051 53.595L2.30709 55.0896L3.77374 55.0046C3.92268 54.9951 4.0173 54.9872 4.02543 54.9819C3.98281 54.9828 3.89412 54.986 3.77307 54.9907L2.32015 55.0749L2.23437 53.5944C2.19925 52.7026 2.07521 50.0589 2.10881 51.2244ZM1.96046 49.9519C1.96395 50.0113 1.98518 49.4316 2.03493 50.5865C2.03901 50.6827 1.99233 50.8649 2.08299 52.3152C2.10145 52.6095 2.16022 53.064 2.1609 53.031C2.17452 51.5154 1.78731 46.972 1.96046 49.9519ZM0.771873 23.9214C0.759851 24.1566 0.663079 23.5953 0.67352 23.0844C0.678106 22.8653 0.739499 23.2706 0.771873 23.9214ZM9.21296 54.76C7.78362 54.8715 12.2779 54.6615 12.5063 54.6396C12.3608 54.6204 9.35592 54.749 9.21296 54.76ZM18.3229 8.22861C18.3218 8.22866 18.3207 8.22872 18.3196 8.22877C19.5242 8.17991 18.78 8.25109 18.8365 8.24945C21.404 8.17647 20.7198 8.13018 21.1204 8.10137C21.9795 8.03942 21.8456 8.14256 23.2945 8.03222C20.8992 8.20756 23.0809 8.07695 23.1505 8.10795C23.4261 8.2349 19.9544 8.19726 18.7601 8.28459C18.5937 8.29673 19.826 8.28175 19.3997 8.31516C18.0139 8.42365 13.7004 8.41625 18.3229 8.22861ZM0.64835 22.6918C0.580147 22.1354 0.414519 17.896 0.502879 19.0178C0.517074 19.1983 0.7481 23.5099 0.64835 22.6918ZM170.819 47.0374C169.802 47.1223 172.165 47.0497 172.601 47.0008C172.817 46.9764 171.266 47 170.819 47.0374ZM184.358 40.2692C184.292 39.0594 184.081 37.7909 184.178 39.2953C184.188 39.4552 184.344 40.4089 184.358 40.2692ZM107.909 50.1646C109.175 50.1563 109.095 50.0614 108.167 50.1078C107.84 50.1242 107.869 50.1648 107.909 50.1646ZM156.136 47.8129C156.262 47.8102 157.723 47.733 157.668 47.713C157.128 47.7256 155.317 47.8289 156.136 47.8129ZM107.508 50.1981C108.257 50.144 106.964 50.1352 106.051 50.2493C106.516 50.221 107.431 50.2036 107.508 50.1981ZM1.44169 41.8903C1.51258 42.5157 1.58644 44.2913 1.64283 45.3104C1.59575 45.4229 1.48652 42.6183 1.44169 41.8903ZM182.235 46.5765C183.379 46.484 180.923 46.5727 181.151 46.6107C181.182 46.6118 182.19 46.5802 182.235 46.5765ZM67.1422 52.1611C67.9734 52.0895 65.3274 52.1756 66.0577 52.1953C66.0937 52.1958 67.0966 52.1651 67.1422 52.1611ZM55.5958 52.703C56.228 52.6829 58.922 52.549 57.872 52.5693C57.7089 52.5725 55.6418 52.672 55.5958 52.703ZM21.1897 8.06018C20.8467 8.02285 22.8232 7.93984 23.1065 7.93553C23.2178 7.93406 21.6371 8.10871 21.1897 8.06018ZM116.116 49.775C116.769 49.7365 118.466 49.6671 118.763 49.6244C117.963 49.669 115.898 49.7291 116.116 49.775ZM177.012 46.83C178.012 46.8402 179.717 46.7517 179.291 46.6957C177.409 46.7922 179.527 46.7531 177.012 46.83ZM103.3 50.4653C103.825 50.4443 104.223 50.3514 104.164 50.3508C103.594 50.3454 102.778 50.462 103.3 50.4653ZM142.641 48.4967C142.673 48.5266 144.353 48.4309 144.128 48.4216C144.054 48.4184 142.615 48.4725 142.641 48.4967ZM14.0807 54.7338C14.8523 54.725 12.5018 54.8671 11.8046 54.8674C11.464 54.8356 13.9833 54.7352 14.0807 54.7338ZM88.7605 51.152C88.6845 51.2024 91.3102 51.0486 90.2733 51.0603C90.0137 51.0632 88.7872 51.1351 88.7605 51.152ZM63.6149 52.4275C65.3743 52.2865 57.9733 52.606 59.9209 52.5809C60.0602 52.579 63.4617 52.4396 63.6149 52.4275ZM51.5293 52.9789C51.8336 52.9703 51.6897 53.1341 50.4286 53.1348C50.2631 53.1349 51.0336 53.0561 50.8982 53.0532C50.8185 53.0517 48.0819 53.1624 47.956 53.1721C47.8207 53.1828 47.9827 53.2253 47.8455 53.2375C47.6909 53.2513 46.0048 53.289 45.1228 53.3313C43.4608 53.411 43.2834 53.4615 43.1472 53.4682C42.7501 53.4878 42.0813 53.4905 41.2765 53.5296C37.2196 53.7266 31.0168 54.0629 27.7965 54.1304C30.6602 54.0271 33.3856 53.8572 36.2328 53.7075C35.403 53.835 40.419 53.4371 37.4856 53.6802C38.8375 53.5928 50.5319 53.0081 51.5259 52.9791C51.527 52.979 51.5282 52.9789 51.5293 52.9789ZM184.17 35.4907C184.259 36.2316 184.062 32.4176 183.985 32.0969C184.001 32.6009 184.159 35.3989 184.17 35.4907ZM174.561 47.183C174.208 47.2094 173.876 47.3301 172.016 47.3673C172.014 47.3673 172.013 47.3674 172.011 47.3675C171.467 47.3784 172.085 47.3229 171.985 47.3187C171.949 47.3167 170.252 47.347 171.658 47.2704C173.803 47.1535 171.864 47.3383 173.008 47.2839C173.148 47.2772 175.311 47.1156 175.184 47.1093C175.171 47.1085 174.52 47.1521 174.412 47.1521C174.005 47.1525 174.201 47.1103 174.144 47.1115C173.956 47.1166 170.535 47.3382 170.035 47.3138C169.872 47.306 175.49 46.9974 175.71 46.9949C175.848 46.9933 175.794 47.0867 175.938 47.0886C176.012 47.0895 178.271 46.9459 178.565 46.94C178.65 46.9383 178.716 46.9377 178.763 46.9375C178.42 46.9261 180.467 46.8289 180.406 46.8635C180.371 46.8776 178.962 46.9388 178.911 46.9391C178.889 46.9392 178.87 46.9389 178.852 46.9389C179.145 46.9589 174.375 47.1887 175.407 47.1895C174.025 47.2844 175.599 47.1055 174.561 47.183ZM167.917 47.5612C168.059 47.5448 168.202 47.5283 168.344 47.5119C165.924 47.6526 163.128 47.7423 160.339 47.8779C159.632 47.9122 160.449 47.9309 159.52 47.96C158.776 47.9833 157.951 47.9692 158.355 47.9376C158.453 47.9298 159.968 47.8916 160.725 47.8512C162.96 47.7321 162.393 47.7096 162.523 47.7019C162.668 47.6935 164.076 47.6604 164.845 47.6215C166.776 47.5238 167.657 47.4504 170.298 47.3624C168.777 47.4692 169.615 47.5002 167.917 47.5612ZM77.6722 51.8314C77.5817 51.8673 75.9961 51.9162 75.4207 51.9487C75.5097 51.9129 77.0965 51.8639 77.6722 51.8314ZM92.5966 4.35707C92.1125 4.43224 95.7603 4.26812 94.797 4.27182C94.5839 4.27261 93.0549 4.33521 92.5966 4.35707ZM108.983 3.59381C109.47 3.55589 107.504 3.61404 107.509 3.65377C107.513 3.66643 108.92 3.59871 108.983 3.59381ZM136.62 49.0282C136.528 49.0343 135.185 49.0879 135.143 49.0873C134.251 49.0757 138.67 48.8931 136.62 49.0282ZM128.898 2.56432C127.199 2.68059 132.318 2.447 130.752 2.47975C130.674 2.48143 128.979 2.55871 128.898 2.56432ZM136.012 2.20983C135.604 2.23142 133.793 2.30243 133.77 2.31932C133.735 2.34646 135.808 2.26331 136.012 2.20983ZM102.956 50.6772C103.155 50.7258 100.766 50.7976 99.9365 50.8451C99.7366 50.7965 102.127 50.7248 102.956 50.6772ZM118.025 49.9893C107.964 50.5232 110.177 50.2914 118.623 49.9319C118.637 49.9686 118.66 49.9556 118.025 49.9893ZM105.139 50.6074C105.502 50.5524 106.646 50.5081 107.418 50.4736C107.28 50.5062 105.695 50.5737 105.139 50.6074ZM88.2498 4.48789C88.8787 4.41026 91.6764 4.33268 91.1804 4.37617C91.065 4.38597 88.0193 4.52499 88.2498 4.48789ZM135.779 49.1188C136.016 49.164 132.993 49.2875 132.761 49.2861C131.826 49.2809 135.535 49.1432 135.779 49.1188ZM88.675 51.4197C88.1436 51.4898 86.6269 51.5405 85.6521 51.5872C86.0941 51.5279 87.8479 51.459 88.675 51.4197ZM95.7134 51.1131C95.6523 51.1177 94.2926 51.1797 94.2317 51.1806C93.1157 51.1914 96.9621 51.0159 95.7134 51.1131ZM16.6329 7.88453C16.6781 7.88091 17.7078 7.8338 17.7437 7.83373C18.6647 7.83165 15.5744 7.97283 16.6329 7.88453Z" fill="#211F20"/>
</svg>
