<svg width="32" height="32" viewBox="0 0 32 32" fill="none" xmlns="http://www.w3.org/2000/svg">
<rect width="32" height="32" rx="9" fill="white" fill-opacity="0.2"/>
<path d="M11.4325 5.12549H20.5672C24.0471 5.12549 26.8745 7.9529 26.8745 11.4328V20.5675C26.8745 22.2403 26.21 23.8446 25.0271 25.0275C23.8443 26.2103 22.24 26.8748 20.5672 26.8748H11.4325C7.95258 26.8748 5.12517 24.0474 5.12517 20.5675V11.4328C5.12517 9.76 5.78969 8.15571 6.97254 6.97286C8.15539 5.79001 9.75968 5.12549 11.4325 5.12549ZM11.215 7.30042C10.1767 7.30042 9.18093 7.71288 8.44675 8.44707C7.71256 9.18125 7.3001 10.177 7.3001 11.2153V20.785C7.3001 22.9491 9.05093 24.6999 11.215 24.6999H20.7847C21.823 24.6999 22.8188 24.2874 23.5529 23.5533C24.2871 22.8191 24.6996 21.8233 24.6996 20.785V11.2153C24.6996 9.05125 22.9488 7.30042 20.7847 7.30042H11.215ZM21.709 8.93162C22.0696 8.93162 22.4153 9.07484 22.6702 9.32976C22.9252 9.58469 23.0684 9.93044 23.0684 10.291C23.0684 10.6515 22.9252 10.9972 22.6702 11.2522C22.4153 11.5071 22.0696 11.6503 21.709 11.6503C21.3485 11.6503 21.0028 11.5071 20.7479 11.2522C20.4929 10.9972 20.3497 10.6515 20.3497 10.291C20.3497 9.93044 20.4929 9.58469 20.7479 9.32976C21.0028 9.07484 21.3485 8.93162 21.709 8.93162ZM15.9998 10.5628C17.4419 10.5628 18.8249 11.1357 19.8446 12.1554C20.8643 13.1751 21.4372 14.5581 21.4372 16.0002C21.4372 17.4422 20.8643 18.8252 19.8446 19.8449C18.8249 20.8646 17.4419 21.4375 15.9998 21.4375C14.5578 21.4375 13.1748 20.8646 12.1551 19.8449C11.1354 18.8252 10.5625 17.4422 10.5625 16.0002C10.5625 14.5581 11.1354 13.1751 12.1551 12.1554C13.1748 11.1357 14.5578 10.5628 15.9998 10.5628ZM15.9998 12.7378C15.1346 12.7378 14.3048 13.0815 13.693 13.6933C13.0812 14.3051 12.7374 15.1349 12.7374 16.0002C12.7374 16.8654 13.0812 17.6952 13.693 18.307C14.3048 18.9188 15.1346 19.2626 15.9998 19.2626C16.8651 19.2626 17.6949 18.9188 18.3067 18.307C18.9185 17.6952 19.2622 16.8654 19.2622 16.0002C19.2622 15.1349 18.9185 14.3051 18.3067 13.6933C17.6949 13.0815 16.8651 12.7378 15.9998 12.7378Z" fill="white"/>
</svg>
