<svg width="1250" height="567" viewBox="0 0 1250 567" fill="none" xmlns="http://www.w3.org/2000/svg">
<g filter="url(#filter0_d_2579_2382)">
<path d="M41.7946 8C38.6735 8 35.9294 10.0663 35.067 13.0659L32.0863 23.4341C31.2239 26.4337 28.4799 28.5 25.3588 28.5H12C8.13401 28.5 5 31.634 5 35.5V557.564C5 561.43 8.13401 564.564 12 564.564H1238C1241.87 564.564 1245 561.43 1245 557.564V35.5C1245 31.634 1241.87 28.5 1238 28.5H668.641C665.52 28.5 662.776 26.4337 661.914 23.4341L658.933 13.0659C658.071 10.0663 655.327 8 652.205 8H41.7946Z" fill="url(#paint0_linear_2579_2382)"/>
</g>
<defs>
<filter id="filter0_d_2579_2382" x="0" y="0" width="1250" height="566.564" filterUnits="userSpaceOnUse" color-interpolation-filters="sRGB">
<feFlood flood-opacity="0" result="BackgroundImageFix"/>
<feColorMatrix in="SourceAlpha" type="matrix" values="0 0 0 0 0 0 0 0 0 0 0 0 0 0 0 0 0 0 127 0" result="hardAlpha"/>
<feOffset dy="-3"/>
<feGaussianBlur stdDeviation="2.5"/>
<feComposite in2="hardAlpha" operator="out"/>
<feColorMatrix type="matrix" values="0 0 0 0 0 0 0 0 0 0 0 0 0 0 0 0 0 0 0.04 0"/>
<feBlend mode="normal" in2="BackgroundImageFix" result="effect1_dropShadow_2579_2382"/>
<feBlend mode="normal" in="SourceGraphic" in2="effect1_dropShadow_2579_2382" result="shape"/>
</filter>
<linearGradient id="paint0_linear_2579_2382" x1="689" y1="525.807" x2="1284.76" y2="1295.54" gradientUnits="userSpaceOnUse">
<stop stop-color="#F7F7F8"/>
<stop offset="1" stop-color="#CAC7C5"/>
</linearGradient>
</defs>
</svg>
